<?xml version="1.0" encoding="UTF-8"?>
<!DOCTYPE svg PUBLIC "-//W3C//DTD SVG 1.1//EN" "http://www.w3.org/Graphics/SVG/1.1/DTD/svg11.dtd">
<svg xmlns="http://www.w3.org/2000/svg" version="1.1" width="100px" height="100px" style="shape-rendering:geometricPrecision; text-rendering:geometricPrecision; image-rendering:optimizeQuality; fill-rule:evenodd; clip-rule:evenodd" xmlns:xlink="http://www.w3.org/1999/xlink">
<g><path style="opacity:0.935" fill="#fdf30c" d="M 40.5,26.5 C 35.61,29.4663 30.2766,31.4663 24.5,32.5C 24.6287,34.2161 24.962,35.8828 25.5,37.5C 20.0353,32.5364 14.702,27.3697 9.5,22C 13.5,18 17.5,14 21.5,10C 22.5,9.33333 23.5,9.33333 24.5,10C 30.0363,15.3686 35.3697,20.8686 40.5,26.5 Z"/></g>
<g><path style="opacity:1" fill="#fcea18" d="M 78.5,11.5 C 81.0751,15.4188 84.0751,19.0855 87.5,22.5C 86.4787,24.188 85.1454,25.5213 83.5,26.5C 67.2438,31.8634 51.0771,37.5301 35,43.5C 33.9701,43.8361 33.4701,44.5028 33.5,45.5C 30.5,43.1667 27.8333,40.5 25.5,37.5C 24.962,35.8828 24.6287,34.2161 24.5,32.5C 30.2766,31.4663 35.61,29.4663 40.5,26.5C 43.7974,29.2956 46.9641,32.2956 50,35.5C 58.5,27 67,18.5 75.5,10C 76.9976,9.4153 77.9976,9.9153 78.5,11.5 Z"/></g>
<g><path style="opacity:0.994" fill="#fde61d" d="M 83.5,26.5 C 81.5389,28.9635 79.3722,31.2968 77,33.5C 76.586,33.0426 76.086,32.7093 75.5,32.5C 62.7469,36.9728 50.0802,41.6395 37.5,46.5C 38.4279,47.7678 38.5946,49.1011 38,50.5C 36.0336,51.7803 34.5336,53.447 33.5,55.5C 28.2056,59.1266 23.539,63.46 19.5,68.5C 17.8333,69.5 16.5,70.8333 15.5,72.5C 13.1271,73.3781 12.2938,75.0448 13,77.5C 16.3333,80.8333 19.6667,84.1667 23,87.5C 31.0358,79.6316 38.8691,71.6316 46.5,63.5C 49.2248,60.5301 51.2248,60.8634 52.5,64.5C 51.5416,64.0472 50.7083,63.3805 50,62.5C 41,71.5 32,80.5 23,89.5C 18.5,85 14,80.5 9.5,76C 18.5,67 27.5,58 36.5,49C 35.2899,47.9609 34.2899,46.7942 33.5,45.5C 33.4701,44.5028 33.9701,43.8361 35,43.5C 51.0771,37.5301 67.2438,31.8634 83.5,26.5 Z"/></g>
<g><path style="opacity:0.995" fill="#fde222" d="M 78.5,11.5 C 82.479,14.8123 86.1456,18.479 89.5,22.5C 81.0144,31.4858 72.3478,40.3191 63.5,49C 64.7101,50.0391 65.7101,51.2058 66.5,52.5C 63.2136,51.7581 61.8803,49.9247 62.5,47C 62,46.8333 61.5,46.6667 61,46.5C 51.8538,49.6615 42.6871,52.6615 33.5,55.5C 34.5336,53.447 36.0336,51.7803 38,50.5C 38.5946,49.1011 38.4279,47.7678 37.5,46.5C 50.0802,41.6395 62.7469,36.9728 75.5,32.5C 76.086,32.7093 76.586,33.0426 77,33.5C 79.3722,31.2968 81.5389,28.9635 83.5,26.5C 85.1454,25.5213 86.4787,24.188 87.5,22.5C 84.0751,19.0855 81.0751,15.4188 78.5,11.5 Z"/></g>
<g><path style="opacity:0.999" fill="#fcde28" d="M 66.5,52.5 C 68.5,53.8333 70.1667,55.5 71.5,57.5C 69.1238,55.8408 66.4571,54.5074 63.5,53.5C 48.8154,58.5058 34.1488,63.5058 19.5,68.5C 23.539,63.46 28.2056,59.1266 33.5,55.5C 42.6871,52.6615 51.8538,49.6615 61,46.5C 61.5,46.6667 62,46.8333 62.5,47C 61.8803,49.9247 63.2136,51.7581 66.5,52.5 Z"/></g>
<g><path style="opacity:0.998" fill="#fcda2c" d="M 71.5,57.5 C 73.8333,59.1667 75.8333,61.1667 77.5,63.5C 75.1216,61.9588 72.6216,60.6255 70,59.5C 65.4598,60.8521 60.9598,62.3521 56.5,64C 55.5494,64.7175 55.3828,65.5509 56,66.5C 58.0367,68.7059 60.2034,70.7059 62.5,72.5C 66.8425,77.6759 71.6759,82.3426 77,86.5C 80.052,83.9389 83.2187,81.6056 86.5,79.5C 83.5375,82.9641 80.3709,86.2975 77,89.5C 68.631,81.2983 60.4643,72.965 52.5,64.5C 51.2248,60.8634 49.2248,60.5301 46.5,63.5C 46.2648,62.9033 45.7648,62.5699 45,62.5C 35.243,66.1411 25.4097,69.4744 15.5,72.5C 16.5,70.8333 17.8333,69.5 19.5,68.5C 34.1488,63.5058 48.8154,58.5058 63.5,53.5C 66.4571,54.5074 69.1238,55.8408 71.5,57.5 Z"/></g>
<g><path style="opacity:1" fill="#fbd830" d="M 46.5,63.5 C 38.8691,71.6316 31.0358,79.6316 23,87.5C 19.6667,84.1667 16.3333,80.8333 13,77.5C 12.2938,75.0448 13.1271,73.3781 15.5,72.5C 25.4097,69.4744 35.243,66.1411 45,62.5C 45.7648,62.5699 46.2648,62.9033 46.5,63.5 Z"/></g>
<g><path style="opacity:1" fill="#fcd433" d="M 77.5,63.5 C 81.4643,66.9629 85.2977,70.6295 89,74.5C 89.7726,76.3524 89.2726,77.6857 87.5,78.5C 86.0454,72.8684 82.5454,68.8684 77,66.5C 71.7488,67.8512 66.9155,69.8512 62.5,72.5C 60.2034,70.7059 58.0367,68.7059 56,66.5C 55.3828,65.5509 55.5494,64.7175 56.5,64C 60.9598,62.3521 65.4598,60.8521 70,59.5C 72.6216,60.6255 75.1216,61.9588 77.5,63.5 Z"/></g>
<g><path style="opacity:1" fill="#fbd03a" d="M 87.5,78.5 C 87.5,79.1667 87.1667,79.5 86.5,79.5C 83.2187,81.6056 80.052,83.9389 77,86.5C 71.6759,82.3426 66.8425,77.6759 62.5,72.5C 66.9155,69.8512 71.7488,67.8512 77,66.5C 82.5454,68.8684 86.0454,72.8684 87.5,78.5 Z"/></g>
</svg>
