<?xml version="1.0" encoding="UTF-8"?>
<!DOCTYPE svg PUBLIC "-//W3C//DTD SVG 1.1//EN" "http://www.w3.org/Graphics/SVG/1.1/DTD/svg11.dtd">
<svg xmlns="http://www.w3.org/2000/svg" version="1.1" width="100px" height="100px" style="shape-rendering:geometricPrecision; text-rendering:geometricPrecision; image-rendering:optimizeQuality; fill-rule:evenodd; clip-rule:evenodd" xmlns:xlink="http://www.w3.org/1999/xlink">
<g><path style="opacity:0.488" fill="#fdf30b" d="M 43.5,2.5 C 42.1581,4.36092 41.1581,6.36092 40.5,8.5C 40.5,6.5 40.5,4.5 40.5,2.5C 41.5,2.5 42.5,2.5 43.5,2.5 Z"/></g>
<g><path style="opacity:0.922" fill="#fdf010" d="M 43.5,2.5 C 46.5,2.5 49.5,2.5 52.5,2.5C 48.7398,14.2985 45.7398,26.2985 43.5,38.5C 42.5,38.5 41.5,38.5 40.5,38.5C 40.5,28.5 40.5,18.5 40.5,8.5C 41.1581,6.36092 42.1581,4.36092 43.5,2.5 Z"/></g>
<g><path style="opacity:0.973" fill="#fdee13" d="M 52.5,2.5 C 53.1667,2.5 53.8333,2.5 54.5,2.5C 50.2131,21.2695 45.5465,39.9362 40.5,58.5C 39.1667,58.5 37.8333,58.5 36.5,58.5C 38.0082,52.9465 39.6749,47.4465 41.5,42C 41.4301,41.2352 41.0967,40.7352 40.5,40.5C 40.5,39.8333 40.5,39.1667 40.5,38.5C 41.5,38.5 42.5,38.5 43.5,38.5C 45.7398,26.2985 48.7398,14.2985 52.5,2.5 Z"/></g>
<g><path style="opacity:0.941" fill="#fceb16" d="M 54.5,2.5 C 55.8333,2.5 57.1667,2.5 58.5,2.5C 58.5,11.5 58.5,20.5 58.5,29.5C 57.6862,27.369 57.1862,25.0356 57,22.5C 51.8597,40.0013 47.193,57.668 43,75.5C 42.3292,76.2524 41.4959,76.5858 40.5,76.5C 40.5,70.5 40.5,64.5 40.5,58.5C 45.5465,39.9362 50.2131,21.2695 54.5,2.5 Z"/></g>
<g><path style="opacity:0.95" fill="#fce81a" d="M 58.5,29.5 C 58.5,33.1667 58.5,36.8333 58.5,40.5C 56.0093,45.1819 54.0093,50.1819 52.5,55.5C 51.0118,64.7202 48.6785,73.7202 45.5,82.5C 44.4423,87.1194 43.7756,91.7861 43.5,96.5C 42.5,96.5 41.5,96.5 40.5,96.5C 40.5,89.8333 40.5,83.1667 40.5,76.5C 41.4959,76.5858 42.3292,76.2524 43,75.5C 47.193,57.668 51.8597,40.0013 57,22.5C 57.1862,25.0356 57.6862,27.369 58.5,29.5 Z"/></g>
<g><path style="opacity:0.904" fill="#fefc01" d="M 18.5,40.5 C 19.0434,41.7421 19.3767,43.0755 19.5,44.5C 17.9211,47.6584 16.9211,50.9917 16.5,54.5C 16.5195,55.7261 16.8529,56.7261 17.5,57.5C 18.4916,57.3284 19.1583,57.6618 19.5,58.5C 13.8333,58.5 8.16667,58.5 2.5,58.5C 2.5,52.5 2.5,46.5 2.5,40.5C 7.83333,40.5 13.1667,40.5 18.5,40.5 Z"/></g>
<g><path style="opacity:0.952" fill="#fdf805" d="M 18.5,40.5 C 19.8333,40.5 21.1667,40.5 22.5,40.5C 21.2068,46.3169 19.5401,51.9835 17.5,57.5C 16.8529,56.7261 16.5195,55.7261 16.5,54.5C 16.9211,50.9917 17.9211,47.6584 19.5,44.5C 19.3767,43.0755 19.0434,41.7421 18.5,40.5 Z"/></g>
<g><path style="opacity:0.947" fill="#fef509" d="M 22.5,40.5 C 25.1667,40.5 27.8333,40.5 30.5,40.5C 30.9234,41.2646 31.2568,42.0979 31.5,43C 30.9583,47.7886 29.6249,52.2886 27.5,56.5C 27.8627,57.1835 28.1961,57.8501 28.5,58.5C 25.5,58.5 22.5,58.5 19.5,58.5C 19.1583,57.6618 18.4916,57.3284 17.5,57.5C 19.5401,51.9835 21.2068,46.3169 22.5,40.5 Z"/></g>
<g><path style="opacity:0.953" fill="#fdf10f" d="M 30.5,40.5 C 33.8333,40.5 37.1667,40.5 40.5,40.5C 41.0967,40.7352 41.4301,41.2352 41.5,42C 39.6749,47.4465 38.0082,52.9465 36.5,58.5C 33.8333,58.5 31.1667,58.5 28.5,58.5C 28.1961,57.8501 27.8627,57.1835 27.5,56.5C 29.6249,52.2886 30.9583,47.7886 31.5,43C 31.2568,42.0979 30.9234,41.2646 30.5,40.5 Z"/></g>
<g><path style="opacity:0.979" fill="#fde61d" d="M 58.5,40.5 C 59.8333,40.5 61.1667,40.5 62.5,40.5C 60.7608,46.3905 59.4274,52.3905 58.5,58.5C 58.5,58.8333 58.5,59.1667 58.5,59.5C 54.1843,71.4651 50.851,83.7985 48.5,96.5C 46.8333,96.5 45.1667,96.5 43.5,96.5C 43.7756,91.7861 44.4423,87.1194 45.5,82.5C 48.6785,73.7202 51.0118,64.7202 52.5,55.5C 54.0093,50.1819 56.0093,45.1819 58.5,40.5 Z"/></g>
<g><path style="opacity:0.934" fill="#fce222" d="M 62.5,40.5 C 66.1667,40.5 69.8333,40.5 73.5,40.5C 72.1938,41.4674 71.5271,42.8007 71.5,44.5C 69.744,45.5521 69.0773,47.2188 69.5,49.5C 68.6993,51.0418 68.366,52.7085 68.5,54.5C 66.1582,55.2107 65.8249,56.544 67.5,58.5C 64.5,58.5 61.5,58.5 58.5,58.5C 59.4274,52.3905 60.7608,46.3905 62.5,40.5 Z"/></g>
<g><path style="opacity:0.933" fill="#fcdd28" d="M 73.5,40.5 C 77.1667,40.5 80.8333,40.5 84.5,40.5C 84.5,41.1667 84.1667,41.5 83.5,41.5C 81.8372,43.4385 81.1706,45.7718 81.5,48.5C 79.955,49.2297 79.1216,50.563 79,52.5C 78.2204,54.3869 78.3871,56.0536 79.5,57.5C 80.1667,57.5 80.5,57.8333 80.5,58.5C 76.8333,58.5 73.1667,58.5 69.5,58.5C 68.7659,57.2921 68.4326,55.9587 68.5,54.5C 68.366,52.7085 68.6993,51.0418 69.5,49.5C 71.2132,48.3646 71.8799,46.698 71.5,44.5C 71.5271,42.8007 72.1938,41.4674 73.5,40.5 Z"/></g>
<g><path style="opacity:0.936" fill="#fbd82f" d="M 84.5,40.5 C 87.5,40.5 90.5,40.5 93.5,40.5C 92.828,41.2674 91.9947,41.9341 91,42.5C 89.9701,47.8137 89.1368,53.1471 88.5,58.5C 85.8333,58.5 83.1667,58.5 80.5,58.5C 80.5,57.8333 80.1667,57.5 79.5,57.5C 80.7755,54.6644 81.4422,51.6644 81.5,48.5C 82.6118,46.4006 83.2785,44.0673 83.5,41.5C 84.1667,41.5 84.5,41.1667 84.5,40.5 Z"/></g>
<g><path style="opacity:0.85" fill="#fcd533" d="M 93.5,40.5 C 94.5,40.5 95.5,40.5 96.5,40.5C 96.5,45.5 96.5,50.5 96.5,55.5C 95.8343,52.9723 95.1676,50.3056 94.5,47.5C 93.6579,51.4587 92.3246,55.1253 90.5,58.5C 89.8333,58.5 89.1667,58.5 88.5,58.5C 89.1368,53.1471 89.9701,47.8137 91,42.5C 91.9947,41.9341 92.828,41.2674 93.5,40.5 Z"/></g>
<g><path style="opacity:1" fill="#fbdb2b" d="M 83.5,41.5 C 83.2785,44.0673 82.6118,46.4006 81.5,48.5C 81.1706,45.7718 81.8372,43.4385 83.5,41.5 Z"/></g>
<g><path style="opacity:1" fill="#fce024" d="M 71.5,44.5 C 71.8799,46.698 71.2132,48.3646 69.5,49.5C 69.0773,47.2188 69.744,45.5521 71.5,44.5 Z"/></g>
<g><path style="opacity:0.832" fill="#fcd334" d="M 96.5,55.5 C 96.5,56.5 96.5,57.5 96.5,58.5C 94.5,58.5 92.5,58.5 90.5,58.5C 92.3246,55.1253 93.6579,51.4587 94.5,47.5C 95.1676,50.3056 95.8343,52.9723 96.5,55.5 Z"/></g>
<g><path style="opacity:1" fill="#fbdb2b" d="M 81.5,48.5 C 81.4422,51.6644 80.7755,54.6644 79.5,57.5C 78.3871,56.0536 78.2204,54.3869 79,52.5C 79.1216,50.563 79.955,49.2297 81.5,48.5 Z"/></g>
<g><path style="opacity:1" fill="#fce025" d="M 68.5,54.5 C 68.4326,55.9587 68.7659,57.2921 69.5,58.5C 68.8333,58.5 68.1667,58.5 67.5,58.5C 65.8249,56.544 66.1582,55.2107 68.5,54.5 Z"/></g>
<g><path style="opacity:0.852" fill="#fce321" d="M 58.5,59.5 C 58.5,71.8333 58.5,84.1667 58.5,96.5C 55.1667,96.5 51.8333,96.5 48.5,96.5C 50.851,83.7985 54.1843,71.4651 58.5,59.5 Z"/></g>
</svg>
