<?xml version="1.0" encoding="UTF-8"?>
<!DOCTYPE svg PUBLIC "-//W3C//DTD SVG 1.1//EN" "http://www.w3.org/Graphics/SVG/1.1/DTD/svg11.dtd">
<svg xmlns="http://www.w3.org/2000/svg" version="1.1" width="100px" height="100px" style="shape-rendering:geometricPrecision; text-rendering:geometricPrecision; image-rendering:optimizeQuality; fill-rule:evenodd; clip-rule:evenodd" xmlns:xlink="http://www.w3.org/1999/xlink">
<g><path style="opacity:0.685" fill="#fffe6d" d="M 61.5,10.5 C 53.5071,9.20505 45.5071,9.20505 37.5,10.5C 37.9175,9.77842 38.5842,9.27842 39.5,9C 46.1667,8.33333 52.8333,8.33333 59.5,9C 60.4158,9.27842 61.0825,9.77842 61.5,10.5 Z"/></g>
<g><path style="opacity:1" fill="#fef816" d="M 61.5,10.5 C 62.609,10.5569 63.609,10.8902 64.5,11.5C 66.86,13.4717 66.36,15.1383 63,16.5C 46.3447,23.1616 29.5114,28.9949 12.5,34C 13.464,32.2745 14.1307,30.4412 14.5,28.5C 18.318,21.1832 23.9847,15.6832 31.5,12C 33.5183,11.4954 35.5183,10.9954 37.5,10.5C 45.5071,9.20505 53.5071,9.20505 61.5,10.5 Z"/></g>
<g><path style="opacity:1" fill="#fdf119" d="M 64.5,11.5 C 67.9484,12.3901 70.9484,14.0568 73.5,16.5C 73.9528,17.4584 74.6195,18.2917 75.5,19C 53.8257,28.0021 31.8257,36.1687 9.5,43.5C 10.2186,41.2362 10.552,38.9029 10.5,36.5C 10.8961,33.279 12.2295,30.6123 14.5,28.5C 14.1307,30.4412 13.464,32.2745 12.5,34C 29.5114,28.9949 46.3447,23.1616 63,16.5C 66.36,15.1383 66.86,13.4717 64.5,11.5 Z"/></g>
<g><path style="opacity:1" fill="#fde91d" d="M 73.5,16.5 C 77.1667,18.1667 79.8333,20.8333 81.5,24.5C 83.0603,26.1294 82.727,27.296 80.5,28C 56.8361,36.6094 33.1694,45.1094 9.5,53.5C 9.5,50.1667 9.5,46.8333 9.5,43.5C 31.8257,36.1687 53.8257,28.0021 75.5,19C 74.6195,18.2917 73.9528,17.4584 73.5,16.5 Z"/></g>
<g><path style="opacity:1" fill="#fde324" d="M 81.5,24.5 C 83.5311,25.5387 84.8645,27.2054 85.5,29.5C 85.4392,32.0495 84.1059,33.5495 81.5,34C 57.8361,42.6094 34.1694,51.1094 10.5,59.5C 9.85048,57.5648 9.51715,55.5648 9.5,53.5C 33.1694,45.1094 56.8361,36.6094 80.5,28C 82.727,27.296 83.0603,26.1294 81.5,24.5 Z"/></g>
<g><path style="opacity:1" fill="#fcde2a" d="M 85.5,29.5 C 86.6737,30.5137 87.3404,31.847 87.5,33.5C 87.762,34.9778 87.4287,36.3112 86.5,37.5C 62.2437,46.6967 37.9104,55.6967 13.5,64.5C 12.5832,63.8728 11.5832,63.5394 10.5,63.5C 10.5,63.1667 10.5,62.8333 10.5,62.5C 10.5,61.5 10.5,60.5 10.5,59.5C 34.1694,51.1094 57.8361,42.6094 81.5,34C 84.1059,33.5495 85.4392,32.0495 85.5,29.5 Z"/></g>
<g><path style="opacity:1" fill="#fcda31" d="M 87.5,33.5 C 89.1628,35.4385 89.8294,37.7718 89.5,40.5C 89.5858,41.4959 89.2524,42.3292 88.5,43C 64.41,52.0301 40.2434,60.8635 16,69.5C 14.9231,68.5705 13.7564,67.9038 12.5,67.5C 11.8333,66.1667 11.1667,64.8333 10.5,63.5C 11.5832,63.5394 12.5832,63.8728 13.5,64.5C 37.9104,55.6967 62.2437,46.6967 86.5,37.5C 87.4287,36.3112 87.762,34.9778 87.5,33.5 Z"/></g>
<g><path style="opacity:1" fill="#fcd437" d="M 89.5,40.5 C 90.4731,42.9479 90.8064,45.6146 90.5,48.5C 69.3462,56.9433 48.0128,65.11 26.5,73C 23.9373,74.0793 21.2706,74.5793 18.5,74.5C 18.1583,73.6618 17.4916,73.3284 16.5,73.5C 14.684,71.8816 13.3507,69.8816 12.5,67.5C 13.7564,67.9038 14.9231,68.5705 16,69.5C 40.2434,60.8635 64.41,52.0301 88.5,43C 89.2524,42.3292 89.5858,41.4959 89.5,40.5 Z"/></g>
<g><path style="opacity:0.971" fill="#feef64" d="M 10.5,36.5 C 10.552,38.9029 10.2186,41.2362 9.5,43.5C 9.5,46.8333 9.5,50.1667 9.5,53.5C 9.51715,55.5648 9.85048,57.5648 10.5,59.5C 10.5,60.5 10.5,61.5 10.5,62.5C 9.73209,61.7375 9.23209,60.7375 9,59.5C 8.33333,52.5 8.33333,45.5 9,38.5C 9.27842,37.5842 9.77842,36.9175 10.5,36.5 Z"/></g>
<g><path style="opacity:1" fill="#fcd140" d="M 90.5,48.5 C 90.8128,52.0419 90.4794,55.3752 89.5,58.5C 88.2655,61.3298 87.2655,64.3298 86.5,67.5C 76.7077,85.2287 61.7077,92.562 41.5,89.5C 39.8984,87.9261 37.8984,87.2594 35.5,87.5C 31.0666,86.7855 27.4,84.7855 24.5,81.5C 22.5,79.1667 20.5,76.8333 18.5,74.5C 21.2706,74.5793 23.9373,74.0793 26.5,73C 48.0128,65.11 69.3462,56.9433 90.5,48.5 Z"/></g>
<g><path style="opacity:0.153" fill="#ffe79b" d="M 89.5,58.5 C 89.8676,62.0443 88.8676,65.0443 86.5,67.5C 87.2655,64.3298 88.2655,61.3298 89.5,58.5 Z"/></g>
<g><path style="opacity:0.788" fill="#fee887" d="M 16.5,73.5 C 17.4916,73.3284 18.1583,73.6618 18.5,74.5C 20.5,76.8333 22.5,79.1667 24.5,81.5C 20.855,79.8551 18.1884,77.1884 16.5,73.5 Z"/></g>
<g><path style="opacity:0.459" fill="#fee490" d="M 35.5,87.5 C 37.8984,87.2594 39.8984,87.9261 41.5,89.5C 39.1016,89.7406 37.1016,89.0739 35.5,87.5 Z"/></g>
</svg>
